<svg width="16" height="16" viewBox="0 0 16 16" fill="none" xmlns="http://www.w3.org/2000/svg">
<g clip-path="url(#clip0_215_73)">
<path d="M15.8067 14.86L11.8333 10.8867C12.7667 9.74 13.3333 8.26667 13.3333 6.66667C13.3333 2.99333 10.34 0 6.66667 0C2.99333 0 0 2.99333 0 6.66667C0 10.34 2.99333 13.3333 6.66667 13.3333C8.26667 13.3333 9.74 12.7667 10.8867 11.8333L14.86 15.8067C14.9933 15.9333 15.16 16 15.3333 16C15.5067 16 15.6733 15.9333 15.8067 15.8067C16.0667 15.5467 16.0667 15.12 15.8067 14.86ZM6.66667 12C3.95333 12 1.70667 9.96 1.37333 7.33333H3.33333C3.54 7.33333 3.74 7.23333 3.86667 7.06667L5.17333 5.32L6.72 8.92667C6.82 9.15333 7.02667 9.30667 7.27333 9.33333H7.33333C7.55333 9.33333 7.76667 9.22 7.88667 9.03333L9.02667 7.33333H10C10.3667 7.33333 10.6667 7.03333 10.6667 6.66667C10.6667 6.3 10.3667 6 10 6H8.66667C8.44667 6 8.23333 6.11333 8.11333 6.3L7.46 7.27333L5.94667 3.74C5.85333 3.52 5.64667 3.36667 5.41333 3.34C5.17333 3.30667 4.94 3.40667 4.8 3.6L3 6H1.37333C1.70667 3.37333 3.95333 1.33333 6.66667 1.33333C9.60667 1.33333 12 3.72667 12 6.66667C12 9.60667 9.60667 12 6.66667 12Z" fill="white" fill-opacity="0.5"/>
</g>
<defs>
<clipPath id="clip0_215_73">
<rect width="16" height="16" fill="white"/>
</clipPath>
</defs>
</svg>
