<svg width="16" height="16" viewBox="0 0 16 16" fill="none" xmlns="http://www.w3.org/2000/svg">
<g clip-path="url(#clip0_208_170)">
<path d="M13.1875 10.375C12.5811 10.375 12.0226 10.5723 11.5628 10.8999L11.1463 10.4835C10.0873 9.03572 10.0873 6.96431 11.1463 5.51653L11.5628 5.10006C12.0226 5.42772 12.5811 5.625 13.1875 5.625C14.7384 5.625 16 4.36341 16 2.8125C16 1.26159 14.7384 0 13.1875 0C11.6366 0 10.375 1.26159 10.375 2.8125C10.375 3.41894 10.5723 3.97741 10.8999 4.43722L10.4834 4.85372C9.03519 5.91322 6.96481 5.91322 5.51656 4.85372L5.10006 4.43722C5.42772 3.97741 5.625 3.41894 5.625 2.8125C5.625 1.26159 4.36341 0 2.8125 0C1.26159 0 0 1.26159 0 2.8125C0 4.36341 1.26159 5.625 2.8125 5.625C3.41894 5.625 3.97741 5.42772 4.43722 5.10006L4.85366 5.5165C5.91269 6.96428 5.91269 9.03569 4.85366 10.4835L4.43722 10.8999C3.97741 10.5723 3.41894 10.375 2.8125 10.375C1.26159 10.375 0 11.6366 0 13.1875C0 14.7384 1.26159 16 2.8125 16C4.36341 16 5.625 14.7384 5.625 13.1875C5.625 12.5811 5.42772 12.0226 5.10006 11.5628L5.51656 11.1463C6.96481 10.0868 9.03519 10.0868 10.4834 11.1463L10.8999 11.5628C10.5723 12.0226 10.375 12.5811 10.375 13.1875C10.375 14.7384 11.6366 16 13.1875 16C14.7384 16 16 14.7384 16 13.1875C16 11.6366 14.7384 10.375 13.1875 10.375ZM13.1875 0.9375C14.2216 0.9375 15.0625 1.77841 15.0625 2.8125C15.0625 3.84659 14.2216 4.6875 13.1875 4.6875C12.8408 4.6875 12.5198 4.5865 12.241 4.42188L13.1875 3.47534L13.3248 3.61269C13.5079 3.79578 13.8046 3.79578 13.9877 3.61269C14.1708 3.42959 14.1708 3.13294 13.9877 2.94984L13.0502 2.01234C12.8671 1.82925 12.5704 1.82925 12.3873 2.01234C12.2042 2.19544 12.2042 2.49209 12.3873 2.67519L12.5247 2.8125L11.5781 3.75903C11.4135 3.48019 11.3125 3.15919 11.3125 2.8125C11.3125 1.77841 12.1534 0.9375 13.1875 0.9375ZM4.42188 3.75903L3.47534 2.8125L3.61269 2.67516C3.79578 2.49206 3.79578 2.19541 3.61269 2.01231C3.42959 1.82922 3.13294 1.82922 2.94984 2.01231L2.01234 2.94981C1.82925 3.13291 1.82925 3.42956 2.01234 3.61266C2.19544 3.79575 2.49209 3.79575 2.67519 3.61266L2.8125 3.47534L3.75903 4.42188C3.48019 4.5865 3.15919 4.6875 2.8125 4.6875C1.77841 4.6875 0.9375 3.84659 0.9375 2.8125C0.9375 1.77841 1.77841 0.9375 2.8125 0.9375C3.84659 0.9375 4.6875 1.77841 4.6875 2.8125C4.6875 3.15919 4.5865 3.48022 4.42188 3.75903ZM2.8125 15.0625C1.77841 15.0625 0.9375 14.2216 0.9375 13.1875C0.9375 12.1534 1.77841 11.3125 2.8125 11.3125C3.15919 11.3125 3.48022 11.4135 3.75903 11.5781L2.8125 12.5247L2.67516 12.3873C2.49206 12.2042 2.19541 12.2042 2.01231 12.3873C1.82922 12.5704 1.82922 12.8671 2.01231 13.0502L2.94981 13.9877C3.13291 14.1708 3.42956 14.1708 3.61266 13.9877C3.79575 13.8046 3.79575 13.5079 3.61266 13.3248L3.47534 13.1875L4.42188 12.241C4.5865 12.5198 4.6875 12.8408 4.6875 13.1875C4.6875 14.2216 3.84659 15.0625 2.8125 15.0625ZM13.1875 15.0625C12.1534 15.0625 11.3125 14.2216 11.3125 13.1875C11.3125 12.8408 11.4135 12.5198 11.5781 12.241L12.5247 13.1875L12.3873 13.3248C12.2042 13.5079 12.2042 13.8046 12.3873 13.9877C12.4789 14.0792 12.5988 14.125 12.7187 14.125C12.8386 14.125 12.9586 14.0792 13.0501 13.9877L13.9876 13.0502C14.1707 12.8671 14.1707 12.5704 13.9876 12.3873C13.8045 12.2042 13.5079 12.2042 13.3248 12.3873L13.1875 12.5247L12.241 11.5781C12.5198 11.4135 12.8408 11.3125 13.1875 11.3125C14.2216 11.3125 15.0625 12.1534 15.0625 13.1875C15.0625 14.2216 14.2216 15.0625 13.1875 15.0625Z" fill="white" fill-opacity="0.5"/>
</g>
<defs>
<clipPath id="clip0_208_170">
<rect width="16" height="16" fill="white"/>
</clipPath>
</defs>
</svg>
