<svg width="16" height="16" viewBox="0 0 16 16" fill="none" xmlns="http://www.w3.org/2000/svg">
<g clip-path="url(#clip0_215_339)">
<path d="M13.0589 14.7745H2.70593V15.951H13.0589V14.7745Z" fill="white" fill-opacity="0.5"/>
<path d="M9.74511 5.30394H6.11767C5.79276 5.30394 5.52942 5.56728 5.52942 5.89219C5.52942 6.21709 5.79276 6.48044 6.11767 6.48044H9.74511C10.07 6.48044 10.3334 6.21709 10.3334 5.89219C10.3334 5.56728 10.07 5.30394 9.74511 5.30394Z" fill="white" fill-opacity="0.5"/>
<path d="M12.4902 8.04903H6.11767C5.79276 8.04903 5.52942 8.31237 5.52942 8.63728C5.52942 8.96219 5.79276 9.22553 6.11767 9.22553H12.4902C12.8151 9.22553 13.0785 8.96219 13.0785 8.63728C13.0785 8.31237 12.8151 8.04903 12.4902 8.04903Z" fill="white" fill-opacity="0.5"/>
<path d="M15.6533 0.120625C15.4422 0.0257189 15.1953 0.0631876 15.022 0.216313L13.3747 1.67356L11.7255 0.198844C11.5022 -0.000968605 11.1645 -0.000968605 10.9412 0.198844L9.29412 1.67178L7.64687 0.198844C7.42353 -0.000968605 7.08609 -0.000968605 6.86275 0.198844L5.21353 1.67356L3.56628 0.216313C3.39316 0.0633751 3.14609 0.0259064 2.93491 0.120625C2.72394 0.215719 2.58825 0.425531 2.58825 0.656906V11.1275H0.58825C0.263344 11.1275 0 11.3908 0 11.7157V13.1471C0 14.6932 1.25784 15.951 2.80391 15.951V14.7745C1.90647 14.7745 1.17647 14.0443 1.17647 13.1471V12.304H10.3922V13.1471C10.3922 14.6932 11.65 15.951 13.1961 15.951C14.7421 15.951 16 14.6932 16 13.1471V0.656875C16 0.4255 15.8643 0.215719 15.6533 0.120625ZM14.8235 13.1471C14.8235 14.0443 14.0933 14.7745 13.1961 14.7745C12.2988 14.7745 11.5687 14.0443 11.5687 13.1471V11.7157C11.5687 11.3908 11.3053 11.1275 10.9804 11.1275H3.76472V1.96256L4.82609 2.90159C5.04962 3.09925 5.38569 3.09825 5.60784 2.89944L7.25491 1.4265L8.90197 2.89925C9.12531 3.09906 9.46294 3.09906 9.68628 2.89925L11.3335 1.42631L12.9806 2.89925C13.2029 3.09806 13.539 3.09884 13.7623 2.90141L14.8235 1.96259V13.1471Z" fill="white" fill-opacity="0.5"/>
</g>
<defs>
<clipPath id="clip0_215_339">
<rect width="16" height="16" fill="white"/>
</clipPath>
</defs>
</svg>
