<svg width="16" height="16" viewBox="0 0 16 16" fill="none" xmlns="http://www.w3.org/2000/svg">
<g clip-path="url(#clip0_215_333)">
<path d="M2.87873 7.71365C1.2914 7.71365 0 9.00505 0 10.5924C0 11.3949 0.438789 12.3642 1.30421 13.4733C1.92232 14.2654 2.53318 14.8383 2.5589 14.8623L2.87877 15.1609L3.19863 14.8623C3.22435 14.8383 3.83521 14.2654 4.45332 13.4733C5.31871 12.3642 5.75753 11.3949 5.75753 10.5924C5.7575 9.00505 4.4661 7.71365 2.87873 7.71365ZM2.87873 11.5237C2.3652 11.5237 1.94741 11.1059 1.94741 10.5924C1.94741 10.0789 2.3652 9.6611 2.87873 9.6611C3.39226 9.6611 3.81006 10.0789 3.81006 10.5924C3.81006 11.1059 3.39226 11.5237 2.87873 11.5237Z" fill="white" fill-opacity="0.5"/>
<path d="M13.1213 0.839081C11.534 0.839081 10.2426 2.13048 10.2426 3.71781C10.2426 4.52031 10.6813 5.48956 11.5467 6.59867C12.1648 7.39082 12.7757 7.96366 12.8014 7.98766L13.1213 8.28631L13.4411 7.98766C13.4668 7.96366 14.0777 7.39082 14.6958 6.59867C15.5612 5.48956 16 4.52031 16 3.71781C16.0001 2.13051 14.7087 0.839081 13.1213 0.839081ZM13.1213 4.64917C12.6078 4.64917 12.19 4.23138 12.19 3.71785C12.19 3.20432 12.6078 2.78652 13.1213 2.78652C13.6348 2.78652 14.0526 3.20432 14.0526 3.71785C14.0526 4.23138 13.6348 4.64917 13.1213 4.64917Z" fill="white" fill-opacity="0.5"/>
<path d="M11.4026 14.9884H4.75366V14.051H11.4026C12.0919 14.051 12.6526 13.4903 12.6526 12.8011C12.6526 12.1118 12.0919 11.5511 11.4026 11.5511H8.78122C7.57512 11.5511 6.59387 10.5699 6.59387 9.3638C6.59387 8.1577 7.57512 7.17648 8.78122 7.17648H11.2464V8.11387H8.78122C8.09196 8.11387 7.53125 8.67458 7.53125 9.3638C7.53125 10.053 8.09196 10.6137 8.78122 10.6137H11.4026C12.6087 10.6137 13.59 11.595 13.59 12.8011C13.59 14.0072 12.6087 14.9884 11.4026 14.9884Z" fill="white" fill-opacity="0.5"/>
</g>
<defs>
<clipPath id="clip0_215_333">
<rect width="16" height="16" fill="white"/>
</clipPath>
</defs>
</svg>
