<svg width="345" height="35" viewBox="0 0 345 35" fill="none" xmlns="http://www.w3.org/2000/svg">
<g clip-path="url(#clip0_721_526)">
<path d="M73.6694 26.3884L81.1624 7.03614L85.7446 6.38843L93.6154 26.4424H88.3855L87.092 22.614L79.9768 22.9378L78.7913 26.4424L73.6694 26.3884ZM81.3243 18.9494L85.8525 18.6795L83.6414 12.0482L81.3243 18.9494Z" fill="white"/>
<path d="M105.691 11.3484V16.4704C105.367 16.3624 105.043 16.2545 104.667 16.2545H104.181C103.05 16.2545 102.132 16.6323 101.432 17.2781C100.731 17.9258 100.139 18.8414 100.139 19.973V26.4964H95.5026V11.6183L100.031 10.9166V13.1277C101.378 11.9961 103.05 11.3484 104.883 11.3484C105.153 11.2945 105.423 11.2945 105.691 11.3484Z" fill="white"/>
<path d="M117.928 11.3484V16.4704C117.604 16.3624 117.28 16.2545 116.904 16.2545H116.418C115.287 16.2545 114.369 16.6323 113.669 17.2781C112.968 17.9258 112.376 18.8414 112.376 19.973V26.4964H107.74V11.6183L112.268 10.9166V13.1277C113.615 11.9961 115.287 11.3484 117.12 11.3484C117.39 11.2945 117.66 11.2945 117.928 11.3484Z" fill="white"/>
<path d="M127.524 26.3884C122.996 26.3884 119.329 22.9378 119.329 18.6795C119.329 14.4212 122.996 10.9706 127.524 10.9706C132.052 10.9706 135.719 14.4212 135.719 18.6795C135.719 22.9378 132.106 26.3884 127.524 26.3884ZM127.524 22.346C129.627 22.346 131.082 20.8366 131.082 18.6795C131.082 16.5224 129.627 15.013 127.524 15.013C125.421 15.013 123.965 16.5764 123.965 18.6795C123.965 20.7827 125.475 22.346 127.524 22.346Z" fill="white"/>
<path d="M145.583 13.6135L149.087 13.1277L151.352 19.5971L153.993 11.0265L159.923 10.2188L154.047 26.4443H149.951L147.364 19.705L145.369 26.3903H141.326L136.15 11.8882L141.434 11.1865L143.591 19.5431L145.586 13.6135H145.583Z" fill="white"/>
<path d="M47.8785 8.03854V11.5971H40.4472V15.4429H46.0067V18.8993H40.4472V26.2785H36.0038V8.03854H47.8785ZM54.6602 6.39035V26.2785H50.2169V7.05156L54.6602 6.39035ZM74.6101 10.9725L66.0781 32.9716H61.6617L64.4164 26.3904L57.1258 11.5875H62.0877L66.2381 20.6554L69.5634 11.5875L74.6082 10.9725H74.6101Z" fill="url(#paint0_linear_721_526)"/>
<path d="M26.6526 21.5518L26.6121 21.5422L23.8689 20.9291L22.8646 20.7055L20.5147 20.1793L17.6617 27.946C17.6617 27.946 17.6675 27.9383 17.6675 27.9364C18.4367 26.7971 19.2733 25.8159 20.2063 24.9793C21.6714 23.6626 23.3735 22.7104 25.3976 22.0819C25.9374 21.9142 26.5003 21.7696 27.0882 21.6501L26.6526 21.5518ZM8.48581 20.1773L6.13208 20.7036L5.12581 20.9291L2.41545 21.5364L1.93738 21.6424C2.44629 21.7465 2.93593 21.866 3.40822 22.0067C5.47858 22.612 7.21545 23.5489 8.70942 24.854C9.60967 25.6366 10.4212 26.5542 11.1673 27.6125C11.2232 27.6916 11.2771 27.7706 11.333 27.8516L8.48581 20.1773Z" fill="url(#paint1_linear_721_526)"/>
<path d="M28.9909 21.334L20.054 19.3349L14.8877 33.4072C14.8877 33.4072 14.533 34.3749 14.5292 34.3846H14.5272L14.0684 33.147L8.94267 19.3349L0.00579834 21.334L14.5272 -0.069397L28.9619 21.2916L28.9909 21.334Z" fill="white"/>
<path d="M5.12583 20.9292L2.41547 21.5364L5.12583 20.9292ZM26.6121 21.5422L23.869 20.9292L26.6121 21.5422Z" fill="white"/>
</g>
<defs>
<linearGradient id="paint0_linear_721_526" x1="36.0038" y1="19.68" x2="74.6082" y2="19.68" gradientUnits="userSpaceOnUse">
<stop stop-color="#7B87EE"/>
<stop offset="1" stop-color="#9EAEFC"/>
</linearGradient>
<linearGradient id="paint1_linear_721_526" x1="14.5118" y1="27.946" x2="14.5118" y2="20.1773" gradientUnits="userSpaceOnUse">
<stop stop-color="#7B87EE"/>
<stop offset="1" stop-color="#9EAEFC"/>
</linearGradient>
<clipPath id="clip0_721_526">
<rect width="160" height="34.3133" fill="white"/>
</clipPath>
</defs>
</svg>
