<svg width="16" height="16" viewBox="0 0 16 16" fill="none" xmlns="http://www.w3.org/2000/svg">
<g clip-path="url(#clip0_894_10067)">
<path d="M6.76922 0H0.615397C0.275517 0 0 0.275517 0 0.615397V6.76926C0 7.10914 0.275517 7.38466 0.615397 7.38466H6.76926C7.10914 7.38466 7.38466 7.10914 7.38466 6.76926V0.615397C7.38462 0.275517 7.1091 0 6.76922 0ZM6.15386 6.15386H1.23076V1.23076H6.15383V6.15386H6.15386Z" fill="#2ABB94"/>
<path d="M15.3846 0H9.23075C8.89087 0 8.61536 0.275517 8.61536 0.615397V6.76926C8.61536 7.10914 8.89087 7.38466 9.23075 7.38466H15.3846C15.7245 7.38466 16 7.10914 16 6.76926V0.615397C16 0.275517 15.7245 0 15.3846 0ZM14.7692 6.15386H9.84615V1.23076H14.7692V6.15386Z" fill="#2ABB94"/>
<path d="M6.76922 8.61548H0.615397C0.275517 8.61548 0 8.891 0 9.23088V15.3847C0 15.7246 0.275517 16.0001 0.615397 16.0001H6.76926C7.10914 16.0001 7.38466 15.7246 7.38466 15.3847V9.23088C7.38462 8.891 7.1091 8.61548 6.76922 8.61548ZM6.15386 14.7693H1.23076V9.84627H6.15383V14.7693H6.15386Z" fill="#2ABB94"/>
<path d="M15.3846 8.61548H9.23075C8.89087 8.61548 8.61536 8.891 8.61536 9.23088V15.3847C8.61536 15.7246 8.89087 16.0001 9.23075 16.0001H15.3846C15.7245 16.0001 16 15.7246 16 15.3847V9.23088C16 8.891 15.7245 8.61548 15.3846 8.61548ZM14.7692 14.7693H9.84615V9.84627H14.7692V14.7693Z" fill="#2ABB94"/>
</g>
<defs>
<clipPath id="clip0_894_10067">
<rect width="16" height="16" fill="white"/>
</clipPath>
</defs>
</svg>
