<svg width="120" height="26" viewBox="0 0 120 26" fill="none" xmlns="http://www.w3.org/2000/svg">
<path d="M55.2521 19.9239L60.8718 5.40964L64.3085 4.92386L70.2116 19.9643H66.2892L65.3191 17.093L59.9827 17.3359L59.0935 19.9643L55.2521 19.9239ZM60.9933 14.3446L64.3894 14.1422L62.7311 9.16868L60.9933 14.3446Z" fill="white"/>
<path d="M79.268 8.64386V12.4853C79.0251 12.4043 78.7822 12.3234 78.5003 12.3234H78.1359C77.2873 12.3234 76.5991 12.6068 76.0742 13.0911C75.548 13.5769 75.1041 14.2636 75.1041 15.1123V20.0048H71.627V8.84627L75.0232 8.32001V9.97832C76.0338 9.12965 77.2873 8.64386 78.6622 8.64386C78.8646 8.60338 79.067 8.60338 79.268 8.64386Z" fill="white"/>
<path d="M88.4458 8.64386V12.4853C88.2029 12.4043 87.96 12.3234 87.6781 12.3234H87.3138C86.4651 12.3234 85.7769 12.6068 85.2521 13.0911C84.7258 13.5769 84.282 14.2636 84.282 15.1123V20.0048H80.8049V8.84627L84.201 8.32001V9.97832C85.2116 9.12965 86.4651 8.64386 87.84 8.64386C88.0425 8.60338 88.2449 8.60338 88.4458 8.64386Z" fill="white"/>
<path d="M95.6429 19.9238C92.2468 19.9238 89.4969 17.3359 89.4969 14.1422C89.4969 10.9484 92.2468 8.36047 95.6429 8.36047C99.0391 8.36047 101.789 10.9484 101.789 14.1422C101.789 17.3359 99.0795 19.9238 95.6429 19.9238ZM95.6429 16.892C97.2203 16.892 98.3118 15.76 98.3118 14.1422C98.3118 12.5243 97.2203 11.3923 95.6429 11.3923C94.0656 11.3923 92.974 12.5648 92.974 14.1422C92.974 15.7195 94.106 16.892 95.6429 16.892Z" fill="white"/>
<path d="M109.187 10.3427L111.815 9.97832L113.514 14.8304L115.495 8.40241L119.942 7.79663L115.535 19.9658H112.463L110.523 14.9113L109.027 19.9253H105.995L102.113 9.04868L106.076 8.52241L107.694 14.7899L109.19 10.3427H109.187Z" fill="white"/>
<path d="M35.909 6.16144V8.83035H30.3355V11.7147H34.5051V14.307H30.3355V19.8414H27.0029V6.16144H35.909ZM40.9952 4.92529V19.8414H37.6627V5.4212L40.9952 4.92529ZM55.9576 8.36192L49.5586 24.8612H46.2463L48.3123 19.9253L42.8444 8.82313H46.5658L49.6786 15.6241L52.1726 8.82313L55.9562 8.36192H55.9576Z" fill="url(#paint0_linear_352_2729)"/>
<path d="M19.9895 16.2964L19.9591 16.2891L17.9018 15.8294L17.1485 15.6617L15.3861 15.267L13.2464 21.092C13.2464 21.092 13.2507 21.0863 13.2507 21.0848C13.8276 20.2304 14.4551 19.4945 15.1548 18.867C16.2536 17.8795 17.5302 17.1653 19.0483 16.694C19.4531 16.5682 19.8753 16.4598 20.3163 16.3701L19.9895 16.2964ZM6.36445 15.2655L4.59915 15.6602L3.84445 15.8294L1.81168 16.2848L1.45312 16.3643C1.83481 16.4424 2.20204 16.532 2.55626 16.6376C4.10903 17.0916 5.41168 17.7942 6.53216 18.773C7.20734 19.36 7.81601 20.0482 8.37553 20.8419C8.41746 20.9012 8.45794 20.9605 8.49987 21.0212L6.36445 15.2655Z" fill="url(#paint1_linear_352_2729)"/>
<path d="M21.7432 16.133L15.0405 14.6337L11.1658 25.1879C11.1658 25.1879 10.8998 25.9137 10.8969 25.921H10.8955L10.5514 24.9928L6.70705 14.6337L0.00439453 16.133L10.8955 0.0804749L21.7215 16.1012L21.7432 16.133Z" fill="white"/>
<path d="M3.84442 15.8294L1.81165 16.2848L3.84442 15.8294ZM19.9591 16.2892L17.9018 15.8294L19.9591 16.2892Z" fill="white"/>
<defs>
<linearGradient id="paint0_linear_352_2729" x1="27.0029" y1="14.8925" x2="55.9562" y2="14.8925" gradientUnits="userSpaceOnUse">
<stop stop-color="#7B87EE"/>
<stop offset="1" stop-color="#9EAEFC"/>
</linearGradient>
<linearGradient id="paint1_linear_352_2729" x1="10.884" y1="21.092" x2="10.884" y2="15.2655" gradientUnits="userSpaceOnUse">
<stop stop-color="#7B87EE"/>
<stop offset="1" stop-color="#9EAEFC"/>
</linearGradient>
</defs>
</svg>
