<svg width="24" height="24" viewBox="0 0 24 24" fill="none" xmlns="http://www.w3.org/2000/svg">
<g clip-path="url(#clip0_445_4137)">
<path d="M19.501 18C19.474 18 19.446 17.998 19.418 17.993C19.146 17.948 18.962 17.69 19.007 17.418L19.777 12.778C19.882 12.165 19.596 11.544 19.066 11.23L14.717 8.681C14.479 8.541 14.399 8.235 14.538 7.996C14.679 7.758 14.986 7.68 15.223 7.817L19.574 10.367C20.461 10.891 20.937 11.927 20.763 12.944L19.993 17.581C19.953 17.826 19.741 18 19.501 18Z" fill="white"/>
<path d="M4.4989 18C4.2589 18 4.0469 17.826 4.0069 17.582L3.2369 12.942C3.0629 11.927 3.5399 10.892 4.4249 10.369L8.8179 7.789C9.0509 7.649 9.3609 7.727 9.5019 7.967C9.6419 8.204 9.5619 8.511 9.3229 8.65L4.9319 11.23C4.4039 11.543 4.1179 12.165 4.2229 12.775L4.9929 17.418C5.0379 17.69 4.8539 17.948 4.5819 17.993C4.5539 17.998 4.5259 18 4.4989 18Z" fill="white"/>
<path d="M11.996 24C11.925 24 11.852 23.984 11.785 23.953L6.289 21.399C6.113 21.317 6 21.141 6 20.946V15.053C6 14.882 6.087 14.723 6.231 14.631C6.374 14.539 6.554 14.527 6.71 14.6L12.206 17.154C12.382 17.236 12.495 17.413 12.495 17.607V23.5C12.495 23.671 12.408 23.83 12.264 23.922C12.184 23.974 12.09 24 11.996 24ZM7 20.627L11.496 22.717V17.927L7 15.837V20.627Z" fill="white"/>
<path d="M12.0039 24C11.9099 24 11.8159 23.974 11.7349 23.922C11.5899 23.83 11.5039 23.671 11.5039 23.5V17.607C11.5039 17.413 11.6169 17.236 11.7929 17.154L17.2889 14.6C17.4439 14.528 17.6249 14.539 17.7679 14.631C17.9129 14.724 17.9999 14.883 17.9999 15.054V20.947C17.9999 21.141 17.8869 21.318 17.7109 21.4L12.2149 23.954C12.1469 23.984 12.0749 24 12.0039 24ZM12.5039 17.927V22.717L16.9999 20.627V15.837L12.5039 17.927ZM17.4999 20.946H17.5099H17.4999Z" fill="white"/>
<path d="M17.5001 15.554C17.4291 15.554 17.3571 15.539 17.2891 15.507L12.0041 13.051L6.71006 15.507C6.46206 15.626 6.16206 15.515 6.04706 15.264C5.93106 15.014 6.03906 14.717 6.29006 14.601L11.7941 12.047C11.9271 11.985 12.0801 11.985 12.2151 12.047L17.7111 14.601C17.9611 14.717 18.0691 15.014 17.9531 15.265C17.8691 15.446 17.6881 15.554 17.5001 15.554Z" fill="white"/>
<path d="M15.0001 19C14.7241 19 14.5001 18.776 14.5001 18.5V16.54L9.34507 14.081C9.09507 13.962 8.99007 13.664 9.10907 13.415C9.22807 13.166 9.52707 13.06 9.77507 13.179L15.1821 15.757C15.3671 15.832 15.5001 16.011 15.5001 16.22V18.5C15.5001 18.776 15.2761 19 15.0001 19Z" fill="white"/>
<path d="M3.56909 8H2.56909C1.74209 8 1.06909 7.327 1.06909 6.5V4.5C1.06909 3.673 1.74209 3 2.56909 3H3.56909C4.39609 3 5.06909 3.673 5.06909 4.5V6.5C5.06909 7.327 4.39609 8 3.56909 8ZM2.56909 4C2.29409 4 2.06909 4.225 2.06909 4.5V6.5C2.06909 6.775 2.29409 7 2.56909 7H3.56909C3.84409 7 4.06909 6.775 4.06909 6.5V4.5C4.06909 4.225 3.84409 4 3.56909 4H2.56909Z" fill="white"/>
<path d="M5.5 1H0.5C0.224 1 0 0.776 0 0.5C0 0.224 0.224 0 0.5 0H5.5C5.776 0 6 0.224 6 0.5C6 0.776 5.776 1 5.5 1Z" fill="white"/>
<path d="M3 4C2.724 4 2.5 3.776 2.5 3.5V0.5C2.5 0.224 2.724 0 3 0C3.276 0 3.5 0.224 3.5 0.5V3.5C3.5 3.776 3.276 4 3 4Z" fill="white"/>
<path d="M21.5691 8H20.5691C19.7421 8 19.0691 7.327 19.0691 6.5V4.5C19.0691 3.673 19.7421 3 20.5691 3H21.5691C22.3961 3 23.0691 3.673 23.0691 4.5V6.5C23.0691 7.327 22.3961 8 21.5691 8ZM20.5691 4C20.2941 4 20.0691 4.225 20.0691 4.5V6.5C20.0691 6.775 20.2941 7 20.5691 7H21.5691C21.8441 7 22.0691 6.775 22.0691 6.5V4.5C22.0691 4.225 21.8441 4 21.5691 4H20.5691Z" fill="white"/>
<path d="M23.5 1H18.5C18.224 1 18 0.776 18 0.5C18 0.224 18.224 0 18.5 0H23.5C23.776 0 24 0.224 24 0.5C24 0.776 23.776 1 23.5 1Z" fill="white"/>
<path d="M21 4C20.724 4 20.5 3.776 20.5 3.5V0.5C20.5 0.224 20.724 0 21 0C21.276 0 21.5 0.224 21.5 0.5V3.5C21.5 3.776 21.276 4 21 4Z" fill="white"/>
<path d="M12.0701 10C10.3941 10 8.90007 9.137 8.10107 7.747C7.83607 7.286 7.34207 7 6.81207 7H4.57007C4.29407 7 4.07007 6.776 4.07007 6.5C4.07007 6.224 4.29407 6 4.57007 6H6.81107C7.69807 6 8.52407 6.479 8.96807 7.248C9.59007 8.329 10.7511 9 12.0001 9C13.3181 9 14.4791 8.329 15.1021 7.249C15.5441 6.479 16.3711 6 17.2591 6H19.0001V5H17.2591C16.3711 5 15.5441 4.521 15.1021 3.751C14.4791 2.671 13.3181 2 12.0701 2C10.7511 2 9.59007 2.671 8.96807 3.751C8.52407 4.521 7.69807 5 6.81207 5H4.57007C4.29407 5 4.07007 4.776 4.07007 4.5C4.07007 4.224 4.29407 4 4.57007 4H6.81107C7.34107 4 7.83507 3.714 8.10107 3.252C8.90007 1.863 10.3951 1 12.0001 1C13.6751 1 15.1691 1.863 15.9691 3.253C16.2331 3.714 16.7281 4 17.2591 4H19.5001C19.7761 4 20.0001 4.224 20.0001 4.5V6.5C20.0001 6.776 19.7761 7 19.5001 7H17.2591C16.7281 7 16.2341 7.286 15.9691 7.747C15.1691 9.137 13.6751 10 12.0701 10Z" fill="white"/>
</g>
<defs>
<clipPath id="clip0_445_4137">
<rect width="24" height="24" fill="white"/>
</clipPath>
</defs>
</svg>
